<?xml version="1.0" encoding="UTF-8" standalone="no"?><!DOCTYPE svg PUBLIC "-//W3C//DTD SVG 1.1//EN" "http://www.w3.org/Graphics/SVG/1.1/DTD/svg11.dtd"><svg width="100%" height="100%" viewBox="0 0 1652 476" version="1.1" xmlns="http://www.w3.org/2000/svg" xmlns:xlink="http://www.w3.org/1999/xlink" xml:space="preserve" xmlns:serif="http://www.serif.com/" style="fill-rule:evenodd;clip-rule:evenodd;stroke-linejoin:round;stroke-miterlimit:2;"><g id="Layer1"></g><rect id="Artboard6" x="0" y="0" width="1651.786" height="475.526" style="fill:#242a2d;fill-opacity:0;"/><clipPath id="_clip1"><rect x="0" y="0" width="1651.786" height="475.526"/></clipPath><g clip-path="url(#_clip1)"><path d="M185.025,475.014l0,-463.47l199.309,0c51.836,0 93.26,10.922 124.271,32.765c31.011,21.844 46.517,51.1 46.517,87.771c0,56.137 -33.275,92.694 -99.824,109.671c34.18,12.676 56.307,26.597 66.38,41.763c10.073,15.166 16.92,44.593 20.542,88.28c4.301,52.063 72.423,86.469 85.552,103.22l-205.409,0c-9.281,-21.504 -13.921,-48.328 -13.921,-80.471l-0.679,-27.503l-0.679,-34.633c0,-53.421 -21.504,-80.131 -64.512,-80.131l-23.089,0l0,222.737l-134.457,0Zm134.457,-261.105l27.163,0c50.931,0 76.396,-26.597 76.396,-79.791c0,-53.194 -25.465,-79.791 -76.396,-79.791l-27.163,0l0,159.583Z" style="fill:#f5f5f4;"/><path d="M1562.883,276.856c-18.014,-12.511 -27.012,-32.486 -26.993,-59.922l0.058,-83.682c0.008,-11.737 -1.573,-18.978 -4.743,-21.724c-3.17,-2.746 -11.676,-4.124 -25.518,-4.133l-19.897,-0.014l0.018,-25.15l75.048,0.052c28.26,0.02 42.374,22.436 42.343,67.249l-0.056,80.938c-0.016,23.169 7.184,36.359 21.6,39.57l-0.013,18.748c-12.258,2.888 -18.967,9.818 -20.128,20.792l-1.305,10.974l-0.218,2.515l-0.056,80.023c-0.032,46.185 -16.972,71.943 -50.566,71.919l-66.907,0.003l-0.21,-28.563l32.009,0.022l5.84,-0.453c8.363,-1.214 12.551,-9.518 12.561,-24.913l0.059,-84.368c0.018,-26.217 9.044,-46.179 27.076,-59.884Z" style="fill:#f39237;fill-rule:nonzero;"/><path d="M995.135,11.544l129.024,463.47l-135.136,0l-27.503,-100.503l-139.55,0l-29.54,100.503c0,0 -146.453,3.604 -109.903,-8.32c74.648,-24.353 194.448,-455.15 194.448,-455.15l118.159,0Zm-159.922,316.45l113.745,0c0,0 -17.519,-65.832 -32.722,-122.96c-2.731,-10.262 -11.973,-17.44 -22.592,-17.546c-10.618,-0.106 -20.002,6.887 -22.938,17.092c-16.46,57.233 -35.494,123.414 -35.494,123.414Z" style="fill:#f5f5f4;"/><path d="M1383.189,11.23l129.024,463.784l-135.136,-0.314l-27.503,-100.503l-139.55,0l-29.54,100.503c0,0 -146.453,3.604 -109.903,-8.32c74.648,-24.353 194.448,-455.15 194.448,-455.15l118.159,0Zm-159.922,316.45l113.745,0c0,0 -17.519,-65.832 -32.722,-122.96c-2.731,-10.262 -11.973,-17.44 -22.592,-17.546c-10.618,-0.106 -20.002,6.887 -22.938,17.092c-16.46,57.233 -35.494,123.414 -35.494,123.414Z" style="fill:#f5f5f4;"/><path d="M654.788,-0c38.481,0 57.721,14.94 57.721,44.819c0,29.879 -19.24,44.819 -57.721,44.819c-38.481,0 -57.721,-14.94 -57.721,-44.819c0,-29.879 19.24,-44.819 57.721,-44.819Zm-82.564,475.014c25.982,-100.981 22.592,-226.522 19.75,-341.915c38.707,0 80.018,-3.056 123.931,-9.168c-10.901,100.374 -15.58,190.338 13.035,351.082l-156.716,0Z" style="fill:#f5f5f4;"/><path d="M139.662,377.733l31.344,0l0,97.281l-18.443,0c-8.792,-7.963 -18.157,-17.105 -28.095,-27.426c-22.106,-23.126 -39.021,-34.689 -50.743,-34.689c-15.608,0 -23.412,6.18 -23.412,18.539c0,15.035 9.429,22.552 28.286,22.552c4.46,0 10.735,-1.083 18.825,-3.249l-4.778,20.163c-5.988,1.529 -10.798,2.293 -14.43,2.293c-26.438,0 -39.658,-16.341 -39.658,-49.023c0,-13.824 3.408,-25.196 10.225,-34.115c6.817,-8.919 15.545,-13.379 26.184,-13.379c12.168,0 25.419,8.823 39.753,26.47l9.556,11.85l10.989,13.092c0.701,0.828 2.166,2.867 4.396,6.116l0,-56.476Z" style="fill:#f5f5f4;fill-rule:nonzero;"/><path d="M40.565,263.825l27.426,4.969l0,61.828l27.904,4.874c-7.071,-10.448 -10.607,-21.278 -10.607,-32.491c0,-13.57 3.982,-24.702 11.945,-33.398c7.963,-8.696 18.157,-13.044 30.579,-13.044c13.888,0 24.925,4.89 33.112,14.669c8.186,9.779 12.28,22.982 12.28,39.61c0,30.07 -10.321,45.105 -30.962,45.105c-2.994,0 -6.689,-0.446 -11.085,-1.338l-3.536,-16.914c5.224,1.083 10.002,1.625 14.334,1.625c12.996,0 19.494,-6.912 19.494,-20.737c0,-16.564 -11.754,-24.846 -35.262,-24.846c-16.628,0 -24.941,7.04 -24.941,21.119c0,8.409 4.46,15.895 13.379,22.457l-3.631,15.099l-70.428,-12.232l0,-76.353Z" style="fill:#f5f5f4;fill-rule:nonzero;"/><path d="M38.558,185.56c0,-36.377 22.425,-54.565 67.275,-54.565c44.85,0 67.275,18.188 67.275,54.565c0,36.44 -22.425,54.661 -67.275,54.661c-44.85,0 -67.275,-18.22 -67.275,-54.661Zm10.416,0c0,9.938 18.953,14.907 56.859,14.907c37.906,0 56.859,-4.969 56.859,-14.907c0,-9.875 -18.953,-14.812 -56.859,-14.812c-37.906,0 -56.859,4.937 -56.859,14.812Z" style="fill:#f5f5f4;fill-rule:nonzero;"/><path d="M38.558,66.109c0,-36.377 22.425,-54.565 67.275,-54.565c44.85,0 67.275,18.188 67.275,54.565c0,36.44 -22.425,54.661 -67.275,54.661c-44.85,0 -67.275,-18.22 -67.275,-54.661Zm10.416,0c0,9.938 18.953,14.907 56.859,14.907c37.906,0 56.859,-4.969 56.859,-14.907c0,-9.875 -18.953,-14.812 -56.859,-14.812c-37.906,0 -56.859,4.937 -56.859,14.812Z" style="fill:#f5f5f4;fill-rule:nonzero;"/></g></svg>